<svg width="40" height="28" viewBox="0 0 40 28" fill="none" xmlns="http://www.w3.org/2000/svg">
<path d="M34.1723 1.66641L34.1662 1.67548L34.1602 1.68497L28.4612 10.7404L26.4845 13.881L20.1391 23.9648C20.1266 23.9848 20.0933 24.0376 20.0066 24.0376C19.9194 24.0376 19.8872 23.9865 19.8734 23.9648L13.5182 13.8742L11.5407 10.7346L5.86305 1.72024L5.83462 1.67672C5.22284 0.784481 4.27057 0.278547 3.21505 0.278341C2.89317 0.278341 2.56982 0.326809 2.254 0.422098C0.884754 0.836042 0 2.01642 0 3.42965V24.5271C0 25.9399 0.884756 27.1205 2.2538 27.5346C2.57003 27.6301 2.89359 27.6786 3.21505 27.6786C4.27036 27.6786 5.22263 27.1724 5.82793 26.2903L5.83524 26.2794L5.84235 26.2682L10.8821 18.118L8.90461 14.9789L3.34673 23.9667V3.98117L17.0311 25.7077C17.6746 26.7298 18.787 27.3401 20.0064 27.3401C20.3115 27.3399 20.6098 27.3018 20.8957 27.2285C21.4676 27.0819 21.9899 26.7954 22.4173 26.3932C22.6314 26.1923 22.8214 25.9624 22.9823 25.7068L36.6533 3.98096V23.9673L31.1192 15.0139L29.1417 18.1533L34.1305 26.2256L34.1645 26.2786C34.7778 27.1724 35.7301 27.6786 36.7849 27.6786C37.1066 27.6786 37.43 27.6301 37.7464 27.5346C39.1157 27.1203 40 25.9397 40 24.5271V3.42965C40 2.01724 39.1157 0.836456 37.7468 0.422098C37.4306 0.326809 37.1072 0.278133 36.7849 0.278133C35.7296 0.278133 34.7776 0.784271 34.1723 1.66641Z" fill="url(#paint0_linear_3784_9636)"/>
<path d="M34.4333 1.33542C34.3409 1.43937 34.2533 1.54888 34.1728 1.66624L34.1668 1.67532L34.1607 1.68481L28.4617 10.7403L26.4851 13.8808L20.1397 23.9647C20.1271 23.9847 20.0939 24.0375 20.0071 24.0375C19.92 24.0375 19.8878 23.9863 19.874 23.9647L13.5187 13.874L11.5413 10.7345L5.86361 1.72007L5.83518 1.67656C5.7708 1.5823 5.70016 1.49464 5.62846 1.40926C5.38684 1.21043 5.0775 1.08812 4.73827 1.08812C3.9691 1.08812 3.34583 1.70357 3.34583 2.46237L3.34771 3.98286L17.0316 25.7075C17.6752 26.7297 18.7875 27.34 20.0069 27.34C20.3121 27.3398 20.6104 27.3016 20.8963 27.2284C21.4681 27.0817 21.9905 26.7953 22.4179 26.3931C22.6319 26.1922 22.8219 25.9622 22.9829 25.7067L36.6545 3.97997L36.62 2.46237C36.62 1.70357 35.9967 1.08812 35.2277 1.08812C34.932 1.08812 34.6588 1.18032 34.4333 1.33542Z" fill="url(#paint1_linear_3784_9636)"/>
<mask id="mask0_3784_9636" style="mask-type:luminance" maskUnits="userSpaceOnUse" x="29" y="15" width="8" height="12">
<path d="M29.1418 18.1525L34.1305 26.2248L34.1646 26.2778C34.262 26.4197 34.3703 26.5478 34.4835 26.6694C34.6988 26.8043 34.9532 26.8842 35.2272 26.8842C35.9962 26.8842 36.6195 26.2691 36.6195 25.5101L36.5925 23.8679L31.1193 15.0132L29.1418 18.1525Z" fill="white"/>
</mask>
<g mask="url(#mask0_3784_9636)">
<mask id="mask1_3784_9636" style="mask-type:luminance" maskUnits="userSpaceOnUse" x="-6882" y="-6682" width="13699" height="13518">
<path d="M-6881.21 -6681.1H6816.5V6835.56H-6881.21V-6681.1Z" fill="url(#paint2_linear_3784_9636)"/>
</mask>
<g mask="url(#mask1_3784_9636)">
<path d="M29.1421 18.1502L34.1308 26.2225L34.1649 26.2755C34.2623 26.4174 34.3706 26.5454 34.4839 26.6671C34.6991 26.802 34.9535 26.8818 35.2275 26.8818C35.9965 26.8818 36.6198 26.2668 36.6198 25.5078L36.5928 23.8656L31.1196 15.0109L29.1421 18.1502Z" fill="url(#paint3_linear_3784_9636)"/>
</g>
</g>
<mask id="mask2_3784_9636" style="mask-type:luminance" maskUnits="userSpaceOnUse" x="3" y="14" width="8" height="13">
<path d="M3.3847 23.9051L3.34583 25.5101C3.34583 26.2691 3.9691 26.8842 4.73828 26.8842C5.06371 26.8842 5.36093 26.7713 5.59795 26.5867C5.67904 26.4927 5.75659 26.3943 5.82849 26.2895L5.8358 26.2786L5.84291 26.2675L10.8827 18.1172L8.90517 14.9781L3.3847 23.9051Z" fill="white"/>
</mask>
<g mask="url(#mask2_3784_9636)">
<mask id="mask3_3784_9636" style="mask-type:luminance" maskUnits="userSpaceOnUse" x="-6882" y="-6682" width="13699" height="13518">
<path d="M-6881.21 -6681.1H6816.5V6835.56H-6881.21V-6681.1Z" fill="url(#paint4_linear_3784_9636)"/>
</mask>
<g mask="url(#mask3_3784_9636)">
<path d="M3.38458 23.9027L3.3457 25.5078C3.3457 26.2668 3.96898 26.8818 4.73815 26.8818C5.06359 26.8818 5.3608 26.769 5.59782 26.5844C5.67892 26.4904 5.75647 26.392 5.82837 26.2872L5.83568 26.2763L5.84279 26.2651L10.8825 18.1149L8.90505 14.9758L3.38458 23.9027Z" fill="url(#paint5_linear_3784_9636)"/>
</g>
</g>
<path d="M34.4319 1.33474C34.3395 1.43869 34.2519 1.5482 34.1715 1.66556L34.1654 1.67464L34.1593 1.68413L20.1383 23.964C20.1257 23.984 20.0925 24.0368 20.0058 24.0368C19.9433 24.0368 19.91 24.0106 19.8904 23.9879L20.2595 24.651C21.0876 26.0752 22.6943 26.0991 23.2524 25.1998L23.5996 24.7234L36.6531 3.9795L36.6186 2.46169C36.6186 1.70289 35.9953 1.08744 35.2264 1.08744C34.9306 1.08744 34.6574 1.17964 34.4319 1.33474Z" fill="url(#paint6_linear_3784_9636)"/>
<mask id="mask4_3784_9636" style="mask-type:luminance" maskUnits="userSpaceOnUse" x="12" y="1" width="9" height="12">
<path d="M16.7603 2.38361L16.0873 3.38331L12.1917 9.63375L14.1936 12.8071L19.8667 3.62462C19.8802 3.60235 19.9124 3.55079 20 3.55079C20.0878 3.55079 20.1215 3.60441 20.1338 3.62483L19.753 2.93224C19.2875 2.13137 18.5754 1.77331 17.9423 1.77331C17.4496 1.77331 17.0046 1.99008 16.7603 2.38361Z" fill="white"/>
</mask>
<g mask="url(#mask4_3784_9636)">
<mask id="mask5_3784_9636" style="mask-type:luminance" maskUnits="userSpaceOnUse" x="-6882" y="-6682" width="13699" height="13518">
<path d="M-6881.21 -6681.1H6816.5V6835.56H-6881.21V-6681.1Z" fill="url(#paint7_linear_3784_9636)"/>
</mask>
<g mask="url(#mask5_3784_9636)">
<path d="M16.7605 2.38215L16.0875 3.38184L12.1919 9.63229L14.1938 12.8057L19.8669 3.62316C19.8805 3.60088 19.9127 3.54932 20.0002 3.54932C20.088 3.54932 20.1217 3.60295 20.134 3.62337L19.7532 2.93077C19.2877 2.1299 18.5756 1.77185 17.9425 1.77185C17.4498 1.77185 17.0049 1.98862 16.7605 2.38215Z" fill="url(#paint8_linear_3784_9636)"/>
</g>
</g>
<mask id="mask6_3784_9636" style="mask-type:luminance" maskUnits="userSpaceOnUse" x="16" y="0" width="12" height="13">
<path d="M17.0093 1.90402L16.0858 3.3849L16.7589 2.3852C17.3169 1.48595 18.9236 1.50988 19.7515 2.93383L20.092 3.55918L20.2594 3.83804L20.9174 4.89631L25.7916 12.7755L27.7716 9.62214L22.9877 1.90402C22.3458 0.868226 21.2286 0.249887 19.9984 0.249887C18.7681 0.249887 17.6507 0.868226 17.0093 1.90402Z" fill="white"/>
</mask>
<g mask="url(#mask6_3784_9636)">
<mask id="mask7_3784_9636" style="mask-type:luminance" maskUnits="userSpaceOnUse" x="-6882" y="-6682" width="13699" height="13518">
<path d="M-6881.22 -6681.11H6816.5V6835.56H-6881.22V-6681.11Z" fill="url(#paint9_linear_3784_9636)"/>
</mask>
<g mask="url(#mask7_3784_9636)">
<path d="M17.0089 1.90097L16.0854 3.38185L16.7585 2.38215C17.3165 1.4829 18.9232 1.50682 19.7511 2.93078L20.0916 3.55613L20.259 3.83499L20.917 4.89326L25.7912 12.7725L27.7712 9.61909L22.9873 1.90097C22.3454 0.865174 21.2282 0.246836 19.998 0.246836C18.7677 0.246836 17.6503 0.865174 17.0089 1.90097Z" fill="url(#paint10_linear_3784_9636)"/>
</g>
</g>
<defs>
<linearGradient id="paint0_linear_3784_9636" x1="20.0001" y1="5.73431" x2="20.0001" y2="35.8651" gradientUnits="userSpaceOnUse">
<stop stop-color="#C4B2F5"/>
<stop offset="0.172062" stop-color="#C4B2F5"/>
<stop offset="1" stop-color="#5E33D7"/>
</linearGradient>
<linearGradient id="paint1_linear_3784_9636" x1="20.0001" y1="-4.0707" x2="20.0001" y2="26.6046" gradientUnits="userSpaceOnUse">
<stop stop-color="#8969E3"/>
<stop offset="0.827938" stop-color="#8A69E2"/>
<stop offset="1" stop-color="#B498FE"/>
</linearGradient>
<linearGradient id="paint2_linear_3784_9636" x1="32.8838" y1="5.73079" x2="32.8838" y2="35.8616" gradientUnits="userSpaceOnUse">
<stop stop-color="white"/>
<stop offset="0.436518" stop-color="white"/>
<stop offset="1" stop-color="white" stop-opacity="0"/>
</linearGradient>
<linearGradient id="paint3_linear_3784_9636" x1="32.8809" y1="5.73122" x2="32.8809" y2="35.862" gradientUnits="userSpaceOnUse">
<stop stop-color="#9273E7"/>
<stop offset="1" stop-color="#DACFF7"/>
</linearGradient>
<linearGradient id="paint4_linear_3784_9636" x1="7.11815" y1="5.73079" x2="7.11815" y2="35.8616" gradientUnits="userSpaceOnUse">
<stop stop-color="white"/>
<stop offset="0.436518" stop-color="white"/>
<stop offset="1" stop-color="white" stop-opacity="0"/>
</linearGradient>
<linearGradient id="paint5_linear_3784_9636" x1="7.11416" y1="5.73121" x2="7.11416" y2="35.862" gradientUnits="userSpaceOnUse">
<stop stop-color="#C1AFF5"/>
<stop offset="0.436518" stop-color="#B9A5F2"/>
<stop offset="1" stop-color="#451DB4"/>
</linearGradient>
<linearGradient id="paint6_linear_3784_9636" x1="28.2717" y1="2.51188" x2="28.2717" y2="39.9116" gradientUnits="userSpaceOnUse">
<stop offset="1e-07" stop-color="#8563E3"/>
<stop offset="0.172062" stop-color="#8968E4"/>
<stop offset="1" stop-color="#896BDC"/>
</linearGradient>
<linearGradient id="paint7_linear_3784_9636" x1="16.1647" y1="4.33224" x2="16.1647" y2="27.3543" gradientUnits="userSpaceOnUse">
<stop stop-color="white"/>
<stop offset="0.695993" stop-color="white"/>
<stop offset="1" stop-color="white" stop-opacity="0"/>
</linearGradient>
<linearGradient id="paint8_linear_3784_9636" x1="16.163" y1="4.33269" x2="16.163" y2="27.3548" gradientUnits="userSpaceOnUse">
<stop stop-color="#8A6BDE"/>
<stop offset="0.145" stop-color="#A68DEB"/>
</linearGradient>
<linearGradient id="paint9_linear_3784_9636" x1="21.9276" y1="-1.02468" x2="21.9276" y2="22.1715" gradientUnits="userSpaceOnUse">
<stop stop-color="white"/>
<stop offset="0.695993" stop-color="white"/>
<stop offset="1" stop-color="white" stop-opacity="0"/>
</linearGradient>
<linearGradient id="paint10_linear_3784_9636" x1="21.9283" y1="-1.021" x2="21.9283" y2="22.1752" gradientUnits="userSpaceOnUse">
<stop stop-color="#8E6EE5"/>
<stop offset="0.485" stop-color="#B29CEE"/>
</linearGradient>
</defs>
</svg>
