<svg width="307" height="518" viewBox="0 0 307 518" fill="none" xmlns="http://www.w3.org/2000/svg">
<path d="M-60.2306 351.79L79.2177 491.235" stroke="#98CABF" stroke-width="2.20533" stroke-miterlimit="10" stroke-linecap="round" stroke-linejoin="round"/>
<path d="M39.9911 393.734L162.691 516.434" stroke="#C4B2F5" stroke-width="2.20533" stroke-miterlimit="10" stroke-linecap="round" stroke-linejoin="round"/>
<path d="M-42.5685 252.893L174.002 469.464" stroke="#98CABF" stroke-width="2.20533" stroke-miterlimit="10" stroke-linecap="round" stroke-linejoin="round"/>
<path d="M136.239 373.427L188.293 425.48" stroke="#98CABF" stroke-width="2.20533" stroke-miterlimit="10" stroke-linecap="round" stroke-linejoin="round"/>
<path d="M-184 53.1868L81.493 318.676" stroke="#98CABF" stroke-width="2.20533" stroke-miterlimit="10" stroke-linecap="round" stroke-linejoin="round"/>
<path d="M28.9538 207.859L288.31 467.219" stroke="#C4B2F5" stroke-width="2.20533" stroke-miterlimit="10" stroke-linecap="round" stroke-linejoin="round"/>
<path d="M79.2856 199.913L246.832 367.463" stroke="#98CABF" stroke-width="2.20533" stroke-miterlimit="10" stroke-linecap="round" stroke-linejoin="round"/>
<path d="M-91.7625 28.8687L32.0441 152.672" stroke="#98CABF" stroke-width="2.20533" stroke-miterlimit="10" stroke-linecap="round" stroke-linejoin="round"/>
<path d="M217.478 279.827L304.988 367.341" stroke="#C4B2F5" stroke-width="2.20533" stroke-miterlimit="10" stroke-linecap="round" stroke-linejoin="round"/>
<path d="M-16.1069 46.2427L153.902 216.248" stroke="#C4B2F5" stroke-width="2.20533" stroke-miterlimit="10" stroke-linecap="round" stroke-linejoin="round"/>
<path d="M132.707 136.778L250.928 254.999" stroke="#98CABF" stroke-width="2.20533" stroke-miterlimit="10" stroke-linecap="round" stroke-linejoin="round"/>
<path d="M-2.06815 1.9998L86.3492 90.4204" stroke="#98CABF" stroke-width="2.20533" stroke-miterlimit="10" stroke-linecap="round" stroke-linejoin="round"/>
<path d="M237.785 183.578L283.773 229.57" stroke="#C4B2F5" stroke-width="2.20533" stroke-miterlimit="10" stroke-linecap="round" stroke-linejoin="round"/>
<path d="M68.67 14.4634L185.247 131.04" stroke="#C4B2F5" stroke-width="2.20533" stroke-miterlimit="10" stroke-linecap="round" stroke-linejoin="round"/>
<path d="M213.888 101.403L242.139 129.651" stroke="#98CABF" stroke-width="2.20533" stroke-miterlimit="10" stroke-linecap="round" stroke-linejoin="round"/>
<path d="M164.266 51.7812L183.755 71.2705" stroke="#98CABF" stroke-width="2.20533" stroke-miterlimit="10" stroke-linecap="round" stroke-linejoin="round"/>
</svg>
