<svg width="258" height="258" viewBox="0 0 258 258" fill="none" xmlns="http://www.w3.org/2000/svg">
<g clip-path="url(#clip0_1303_8684)">
<path fill-rule="evenodd" clip-rule="evenodd" d="M19.35 0H23.65V43H19.35V0ZM73.3881 1.80545L77.112 3.95545L55.612 41.1945L51.888 39.0445L73.3881 1.80545ZM30.388 44.8055L34.112 46.9555L12.612 84.1945L8.88805 82.0446L30.388 44.8055ZM125.045 8.88805L127.195 12.612L89.9555 34.112L87.8055 30.388L125.045 8.88805ZM39.0445 94.8881L41.1945 98.612L3.95545 120.112L1.80545 116.388L39.0445 94.8881ZM172 19.35V23.65H129V19.35H172ZM43 148.35V152.65H0V148.35H43ZM213.539 30.1L211.389 33.8239L174.15 12.3239L176.3 8.6L213.539 30.1ZM41.5391 202.1L39.3891 205.824L2.15 184.324L4.3 180.6L41.5391 202.1ZM249.112 39.0445L245.388 41.1945L223.888 3.95545L227.612 1.80545L249.112 39.0445ZM34.112 254.045L30.388 256.195L8.88805 218.955L12.612 216.805L34.112 254.045ZM82.0446 51.888L84.1945 55.612L46.9555 77.112L44.8055 73.3881L82.0446 51.888ZM129 62.35V66.65H86V62.35H129ZM170.539 73.1L168.389 76.8239L131.15 55.3239L133.3 51.6L170.539 73.1ZM206.112 82.0446L202.388 84.1945L180.888 46.9555L184.612 44.8055L206.112 82.0446ZM238.65 86H234.35V43H238.65V86ZM245.388 87.8055L249.112 89.9555L227.612 127.195L223.888 125.045L245.388 87.8055ZM86 105.35V109.65H43V105.35H86ZM127.539 116.1L125.389 119.824L88.15 98.3239L90.3 94.6L127.539 116.1ZM163.112 125.045L159.388 127.195L137.888 89.9555L141.612 87.8055L163.112 125.045ZM195.65 129H191.35V86H195.65V129ZM202.388 130.805L206.112 132.955L184.612 170.195L180.888 168.045L202.388 130.805ZM254.045 137.888L256.195 141.612L218.955 163.112L216.805 159.388L254.045 137.888ZM84.5391 159.1L82.3891 162.824L45.15 141.324L47.3 137.6L84.5391 159.1ZM120.112 168.045L116.388 170.195L94.8881 132.955L98.612 130.805L120.112 168.045ZM152.65 172H148.35V129H152.65V172ZM159.388 173.805L163.112 175.955L141.612 213.195L137.888 211.045L159.388 173.805ZM211.045 180.888L213.195 184.612L175.955 206.112L173.805 202.388L211.045 180.888ZM258 191.35V195.65H215V191.35H258ZM77.112 211.045L73.3881 213.195L51.888 175.955L55.612 173.805L77.112 211.045ZM109.65 215H105.35V172H109.65V215ZM116.388 216.805L120.112 218.955L98.612 256.195L94.8881 254.045L116.388 216.805ZM168.045 223.888L170.195 227.612L132.955 249.112L130.805 245.388L168.045 223.888ZM215 234.35V238.65H172V234.35H215ZM256.539 245.1L254.389 248.824L217.15 227.324L219.3 223.6L256.539 245.1ZM66.65 258H62.35V215H66.65V258Z" fill="#FCB5F6"/>
</g>
<defs>
<clipPath id="clip0_1303_8684">
<rect width="258" height="258" fill="white"/>
</clipPath>
</defs>
</svg>
