<svg width="323" height="390" viewBox="0 0 323 390" fill="none" xmlns="http://www.w3.org/2000/svg">
<path d="M345.897 86.315C348.43 86.0921 349.795 90.79 345.897 93.2423C342.456 95.8559 334.408 93.9568 332.112 86.315C329.378 79.0976 334.631 67.8054 345.897 65.5357C356.713 62.71 371.355 71.249 373.468 86.315C376.409 100.884 364.528 118.934 345.897 120.952C327.712 124 306.456 108.746 304.538 86.315C301.362 64.3458 319.928 39.6476 345.897 37.8264C371.419 34.579 399.371 56.4837 401.04 86.315C404.401 115.727 379.244 147.025 345.897 148.661C312.956 152.131 278.504 123.565 276.967 86.315C273.463 49.5698 305.131 11.5031 345.897 10.1171C386.216 6.44796 427.272 41.6648 428.611 86.315C432.353 130.479 394.014 175.183 345.897 176.37C298.237 180.222 250.498 138.368 249.395 86.315C245.457 34.7509 290.412 -16.6011 345.897 -17.5922C400.922 -21.6938 455.275 26.8888 456.182 86.315C460.319 145.255 408.747 203.325 345.897 204.077C283.507 208.366 222.535 153.16 221.824 86.315C217.492 19.9212 275.695 -44.6918 345.897 -45.2988C415.638 -49.7335 483.281 12.0162 483.753 86.315C488.322 160.114 423.45 231.378 345.897 231.786C268.801 236.417 194.529 168.017 194.254 86.315C189.488 5.12912 260.976 -72.8239 345.897 -73.0087C430.357 -77.9037 511.247 -2.7222 511.324 86.315C516.287 174.904 438.182 259.522 345.897 259.495C254.085 264.561 166.525 182.809 166.682 86.315C161.483 -9.67371 246.27 -100.928 345.897 -100.717C445.127 -105.995 539.199 -17.5385 538.896 86.315C544.239 189.696 452.952 287.653 345.897 287.205C239.288 292.706 138.625 197.587 139.111 86.315C133.583 -24.4658 231.476 -129.072 345.897 -128.426C459.844 -134.139 567.202 -32.3171 566.467 86.315C572.232 204.539 467.669 315.744 345.897 314.911C224.582 320.81 110.607 212.39 111.539 86.315C105.579 -39.2821 216.757 -157.203 345.897 -156.134C474.576 -162.27 595.167 -47.1334 594.038 86.315C600.197 219.371 482.401 343.835 345.897 342.621C209.876 348.901 82.6026 227.233 83.968 86.315C77.5608 -54.1547 202.052 -185.242 345.897 -183.843C489.293 -190.322 623.16 -62.0044 621.609 86.315C628.214 234.161 497.104 371.979 345.897 370.33C195.133 377.032 54.6505 242.025 56.3966 86.315C49.6087 -68.9315 187.321 -213.386 345.897 -211.552C503.998 -218.466 651.163 -76.7823 649.18 86.315C656.219 248.966 511.81 400.083 345.897 398.039C180.376 405.149 26.6981 256.818 28.8251 86.315C21.6566 -83.6699 172.551 -241.556 345.897 -239.26C518.795 -246.597 679.077 -91.5733 676.752 86.315C684.118 263.745 526.607 428.228 345.897 425.746C165.658 433.294 -1.30628 271.607 1.25394 86.315C-6.34812 -98.5138 157.833 -269.647 345.897 -266.969" stroke="#C4B2F5" stroke-width="2" stroke-linecap="round"/>
</svg>
